<mxfile host="Electron" agent="Mozilla/5.0 (Windows NT 10.0; Win64; x64) AppleWebKit/537.36 (KHTML, like Gecko) draw.io/25.0.2 Chrome/128.0.6613.186 Electron/32.2.5 Safari/537.36" version="25.0.2">
  <diagram name="Página-1" id="dGUtXV280l55SL9LEfLe">
    <mxGraphModel dx="1050" dy="629" grid="1" gridSize="10" guides="1" tooltips="1" connect="1" arrows="1" fold="1" page="1" pageScale="1" pageWidth="827" pageHeight="1169" math="0" shadow="0">
      <root>
        <mxCell id="0" />
        <mxCell id="1" parent="0" />
        <mxCell id="3WSooecofi4O7SJUF56c-5" style="edgeStyle=orthogonalEdgeStyle;rounded=0;orthogonalLoop=1;jettySize=auto;html=1;exitX=0.5;exitY=1;exitDx=0;exitDy=0;" edge="1" parent="1" source="3WSooecofi4O7SJUF56c-1">
          <mxGeometry relative="1" as="geometry">
            <mxPoint x="414" y="200" as="targetPoint" />
          </mxGeometry>
        </mxCell>
        <mxCell id="3WSooecofi4O7SJUF56c-1" value="INÍCIO" style="rounded=1;whiteSpace=wrap;html=1;" vertex="1" parent="1">
          <mxGeometry x="354" y="80" width="120" height="60" as="geometry" />
        </mxCell>
        <mxCell id="3WSooecofi4O7SJUF56c-4" value="ENTRADA DE DADOS (N1)" style="rounded=0;whiteSpace=wrap;html=1;" vertex="1" parent="1">
          <mxGeometry x="354" y="210" width="120" height="60" as="geometry" />
        </mxCell>
        <mxCell id="3WSooecofi4O7SJUF56c-9" style="edgeStyle=orthogonalEdgeStyle;rounded=0;orthogonalLoop=1;jettySize=auto;html=1;exitX=1;exitY=0.5;exitDx=0;exitDy=0;" edge="1" parent="1" source="3WSooecofi4O7SJUF56c-6">
          <mxGeometry relative="1" as="geometry">
            <mxPoint x="530" y="360" as="targetPoint" />
          </mxGeometry>
        </mxCell>
        <mxCell id="3WSooecofi4O7SJUF56c-11" style="edgeStyle=orthogonalEdgeStyle;rounded=0;orthogonalLoop=1;jettySize=auto;html=1;exitX=0;exitY=0.5;exitDx=0;exitDy=0;" edge="1" parent="1" source="3WSooecofi4O7SJUF56c-6">
          <mxGeometry relative="1" as="geometry">
            <mxPoint x="300" y="360" as="targetPoint" />
          </mxGeometry>
        </mxCell>
        <mxCell id="3WSooecofi4O7SJUF56c-6" value="N1 != 0&amp;nbsp;&lt;div&gt;e&lt;/div&gt;&lt;div&gt;&amp;lt;=-1&lt;/div&gt;" style="rhombus;whiteSpace=wrap;html=1;" vertex="1" parent="1">
          <mxGeometry x="374" y="320" width="80" height="80" as="geometry" />
        </mxCell>
        <mxCell id="3WSooecofi4O7SJUF56c-7" style="edgeStyle=orthogonalEdgeStyle;rounded=0;orthogonalLoop=1;jettySize=auto;html=1;entryX=0.5;entryY=-0.125;entryDx=0;entryDy=0;entryPerimeter=0;" edge="1" parent="1" source="3WSooecofi4O7SJUF56c-4" target="3WSooecofi4O7SJUF56c-6">
          <mxGeometry relative="1" as="geometry" />
        </mxCell>
        <mxCell id="3WSooecofi4O7SJUF56c-8" value="POSITIVO" style="shape=document;whiteSpace=wrap;html=1;boundedLbl=1;" vertex="1" parent="1">
          <mxGeometry x="540" y="330" width="120" height="80" as="geometry" />
        </mxCell>
        <mxCell id="3WSooecofi4O7SJUF56c-10" value="NEGATIVO" style="shape=document;whiteSpace=wrap;html=1;boundedLbl=1;" vertex="1" parent="1">
          <mxGeometry x="170" y="320" width="120" height="80" as="geometry" />
        </mxCell>
        <mxCell id="3WSooecofi4O7SJUF56c-12" value="SIM" style="text;html=1;align=center;verticalAlign=middle;whiteSpace=wrap;rounded=0;" vertex="1" parent="1">
          <mxGeometry x="314" y="320" width="60" height="30" as="geometry" />
        </mxCell>
        <mxCell id="3WSooecofi4O7SJUF56c-13" value="&lt;span style=&quot;color: rgb(0, 0, 0); font-family: Helvetica; font-size: 12px; font-style: normal; font-variant-ligatures: normal; font-variant-caps: normal; font-weight: 400; letter-spacing: normal; orphans: 2; text-align: center; text-indent: 0px; text-transform: none; widows: 2; word-spacing: 0px; -webkit-text-stroke-width: 0px; white-space: normal; background-color: rgb(251, 251, 251); text-decoration-thickness: initial; text-decoration-style: initial; text-decoration-color: initial; display: inline !important; float: none;&quot;&gt;NÃO&lt;/span&gt;" style="text;whiteSpace=wrap;html=1;" vertex="1" parent="1">
          <mxGeometry x="470" y="320" width="54" height="50" as="geometry" />
        </mxCell>
        <mxCell id="3WSooecofi4O7SJUF56c-14" value="FIM" style="rounded=1;whiteSpace=wrap;html=1;" vertex="1" parent="1">
          <mxGeometry x="350" y="470" width="120" height="60" as="geometry" />
        </mxCell>
        <mxCell id="3WSooecofi4O7SJUF56c-16" style="edgeStyle=orthogonalEdgeStyle;rounded=0;orthogonalLoop=1;jettySize=auto;html=1;entryX=-0.007;entryY=0.62;entryDx=0;entryDy=0;entryPerimeter=0;" edge="1" parent="1">
          <mxGeometry relative="1" as="geometry">
            <mxPoint x="339" y="507" as="targetPoint" />
            <mxPoint x="220" y="400" as="sourcePoint" />
            <Array as="points">
              <mxPoint x="220" y="480" />
              <mxPoint x="261" y="480" />
              <mxPoint x="261" y="507" />
            </Array>
          </mxGeometry>
        </mxCell>
        <mxCell id="3WSooecofi4O7SJUF56c-17" style="edgeStyle=orthogonalEdgeStyle;rounded=0;orthogonalLoop=1;jettySize=auto;html=1;entryX=1;entryY=0.75;entryDx=0;entryDy=0;" edge="1" parent="1" target="3WSooecofi4O7SJUF56c-14">
          <mxGeometry relative="1" as="geometry">
            <mxPoint x="719" y="507" as="targetPoint" />
            <mxPoint x="600" y="400" as="sourcePoint" />
            <Array as="points">
              <mxPoint x="600" y="480" />
              <mxPoint x="641" y="480" />
              <mxPoint x="641" y="507" />
              <mxPoint x="530" y="507" />
              <mxPoint x="530" y="515" />
            </Array>
          </mxGeometry>
        </mxCell>
      </root>
    </mxGraphModel>
  </diagram>
</mxfile>
